<?xml version="1.0" standalone="no"?>
<!DOCTYPE svg PUBLIC "-//W3C//DTD SVG 20010904//EN"
 "http://www.w3.org/TR/2001/REC-SVG-20010904/DTD/svg10.dtd">
<svg version="1.0" xmlns="http://www.w3.org/2000/svg"
 width="700.000000pt" height="700.000000pt" viewBox="0 0 700.000000 700.000000"
 preserveAspectRatio="xMidYMid meet">
<metadata>
Created by potrace 1.11, written by Peter Selinger 2001-2013
</metadata>
<g transform="translate(0.000000,700.000000) scale(0.100000,-0.100000)"
fill="#000000" stroke="none">
<path d="M3397 6984 c-1 0 -56 -4 -122 -8 -66 -3 -129 -8 -140 -10 -11 -2 -49
-7 -85 -11 -36 -4 -67 -8 -70 -10 -3 -2 -30 -6 -60 -10 -89 -11 -308 -63 -358
-85 -93 -41 -153 -108 -187 -205 -14 -42 -17 -95 -18 -335 l-2 -285 -106 -55
c-113 -59 -138 -74 -268 -158 -65 -43 -87 -53 -100 -45 -9 5 -36 21 -61 35
-25 14 -112 65 -195 113 -223 131 -245 140 -340 140 -92 -1 -165 -28 -225 -86
-94 -91 -255 -276 -325 -374 -220 -307 -359 -562 -472 -864 -34 -91 -98 -287
-110 -341 -12 -50 -4 -146 16 -201 36 -96 88 -139 353 -292 l236 -137 -5 -33
c-7 -42 -9 -342 -3 -432 l5 -70 -150 -87 c-82 -49 -190 -112 -238 -140 -111
-66 -169 -124 -197 -199 -22 -58 -29 -139 -18 -194 9 -45 67 -235 83 -275 7
-19 28 -72 45 -118 147 -394 429 -834 733 -1145 106 -108 164 -138 271 -138
99 0 105 3 431 194 177 103 180 105 205 89 119 -77 226 -141 317 -189 59 -31
111 -61 114 -65 3 -5 6 -136 6 -291 1 -263 2 -286 23 -339 41 -109 153 -200
275 -223 22 -5 45 -9 50 -11 49 -12 87 -19 195 -39 212 -39 347 -50 605 -49
252 0 370 9 595 48 270 47 367 80 438 149 95 92 104 135 105 480 l1 277 123
65 c68 36 172 97 230 135 l106 69 121 -71 c373 -219 396 -229 490 -229 116 0
184 38 308 173 269 291 468 592 636 958 46 102 126 309 137 360 2 8 15 53 30
100 43 142 37 240 -20 330 -47 75 -67 89 -352 254 -112 65 -204 123 -204 129
-1 7 0 39 2 72 4 84 2 361 -3 413 l-5 42 231 135 c127 73 250 150 273 170 26
22 54 61 74 102 57 119 40 233 -83 563 -151 404 -405 818 -693 1130 -152 164
-202 194 -330 195 -98 0 -110 -5 -398 -174 -114 -66 -211 -121 -216 -121 -4 0
-23 12 -42 26 -47 35 -248 154 -339 201 l-75 38 -1 270 c-1 149 -4 286 -7 305
-21 124 -116 228 -242 266 -77 23 -259 63 -317 69 -29 4 -55 8 -59 10 -3 3
-35 7 -70 10 -35 4 -75 8 -88 10 -66 11 -454 27 -464 19z m383 -687 c14 -3 45
-8 70 -10 25 -3 62 -8 83 -12 36 -7 37 -8 37 -54 1 -25 2 -185 3 -356 l2 -309
45 -17 c306 -112 320 -118 444 -180 121 -61 226 -135 405 -284 91 -74 169
-134 175 -132 6 3 144 82 306 177 l295 172 38 -43 c48 -55 200 -281 244 -362
19 -34 54 -105 79 -157 26 -52 50 -103 55 -113 5 -9 20 -46 34 -82 l24 -65
-22 -14 c-12 -7 -148 -87 -302 -176 -154 -90 -282 -164 -284 -166 -3 -2 24
-173 65 -414 21 -124 7 -404 -31 -609 -1 -9 -6 -36 -10 -61 -4 -25 -9 -52 -10
-60 -1 -8 -6 -34 -9 -56 l-7 -41 118 -68 c65 -37 146 -85 180 -106 34 -22 64
-39 67 -39 4 0 236 -137 243 -143 1 -2 -9 -33 -23 -68 -98 -246 -246 -504
-403 -700 l-44 -56 -61 35 c-34 20 -171 100 -306 178 l-244 142 -81 -66 c-44
-37 -82 -69 -85 -72 -3 -4 -42 -36 -88 -73 -137 -111 -268 -192 -422 -260 -48
-22 -216 -87 -223 -87 -3 0 -41 -14 -86 -31 l-80 -30 0 -356 c0 -195 -1 -357
-3 -358 -2 -2 -32 -6 -68 -10 -36 -4 -74 -9 -85 -11 -105 -21 -524 -20 -632 0
-10 2 -47 7 -83 11 -36 4 -66 8 -68 10 -2 1 -3 162 -3 357 l1 355 -192 73
c-359 135 -469 204 -858 536 -14 11 -40 -1 -180 -83 -91 -53 -178 -104 -195
-114 -16 -10 -46 -27 -65 -37 -19 -10 -69 -39 -111 -64 l-76 -45 -44 55 c-48
61 -169 230 -169 236 0 2 -19 35 -42 72 -48 80 -167 324 -196 405 l-21 57 305
177 c167 97 304 179 304 182 0 3 -13 84 -30 181 -40 243 -41 250 -44 402 -4
155 10 288 60 560 2 14 7 41 10 60 l5 35 -301 174 c-166 96 -303 177 -305 181
-6 9 88 227 144 333 65 124 135 237 221 357 109 153 59 159 410 -46 l302 -176
24 18 c12 11 87 72 166 137 247 205 366 273 683 392 l190 72 2 314 c1 173 2
333 3 356 0 40 2 42 33 48 70 11 88 14 164 20 43 4 80 9 82 11 5 5 443 -3 471
-9z"/>
<path d="M3395 4839 c-94 -9 -144 -16 -183 -28 -18 -5 -33 -10 -35 -9 -8 1
-95 -24 -109 -32 -10 -6 -24 -10 -32 -10 -29 0 -238 -112 -318 -172 -363 -268
-564 -676 -553 -1127 4 -157 6 -176 35 -291 62 -246 172 -443 346 -622 215
-220 472 -350 784 -395 14 -2 72 -5 130 -7 572 -22 1097 336 1298 885 23 62
52 167 59 214 2 17 7 41 10 55 3 14 6 94 8 178 2 152 -5 218 -40 360 -95 377
-374 712 -735 881 -205 95 -453 140 -665 120z m255 -688 c134 -35 235 -93 327
-187 132 -135 203 -325 190 -508 -8 -104 -12 -124 -48 -215 -44 -113 -104
-194 -202 -274 -328 -267 -823 -159 -1011 219 -55 111 -70 175 -70 299 -1 61
2 121 6 135 31 125 55 179 125 278 87 122 243 223 398 255 79 17 217 16 285
-2z"/>
</g>
</svg>
