<?xml version="1.0" encoding="UTF-8"?>
<svg width="50px" height="50px" viewBox="0 0 50 52" version="1.1" xmlns="http://www.w3.org/2000/svg" xmlns:xlink="http://www.w3.org/1999/xlink">
    <!-- Generator: Sketch 51.3 (57544) - http://www.bohemiancoding.com/sketch -->
    <title>cog-logo</title>
    <desc>Created with Sketch.</desc>
    <defs></defs>
    <g id="Page-1" stroke="none" stroke-width="1" fill="none" fill-rule="evenodd">
        <g id="cog-logo" fill="#555" fill-rule="nonzero">
            <path d="M45.3853734,24.0643863 L48.6885892,22.1411187 C49.66639,21.571839 50.1404564,20.4103662 49.848029,19.3105191 C48.6650415,14.8605956 46.3374481,10.8830664 43.2030083,7.71807646 C42.4063278,6.91369819 41.1724066,6.75068813 40.1962656,7.31934004 L36.8990664,9.24009658 C35.8279746,8.466983 34.6850326,7.8005201 33.4863071,7.25007646 L33.4863071,3.40469215 C33.4861738,2.2658389 32.7266573,1.26947501 31.6354772,0.976700201 C27.3034232,-0.185400402 22.7021784,-0.186865191 18.3647303,0.976595573 C17.2735477,1.26934406 16.5136929,2.26571429 16.5136929,3.40458753 L16.5136929,7.24997183 C15.3149674,7.80041547 14.1720254,8.46687837 13.1009336,9.23999195 L9.80373444,7.31923541 C8.82759336,6.7505835 7.5936722,6.91359356 6.7969917,7.71797183 C3.66255187,10.8829618 1.33495851,14.8603863 0.151970954,19.3104145 C-0.140456432,20.4102616 0.333609959,21.5717344 1.31141079,22.1410141 L4.61462656,24.0643863 C4.48807062,25.3865628 4.48807062,26.7179603 4.61462656,28.0401368 L1.31141079,29.9634044 C0.333609959,30.5326841 -0.140456432,31.6941569 0.151970954,32.794004 C1.33495851,37.2439276 3.66255187,41.2214567 6.7969917,44.3864467 C7.5936722,45.1908249 8.82759336,45.353835 9.80373444,44.7851831 L13.1009336,42.8644266 C14.1720035,43.6375449 15.3149494,44.3039751 16.5136929,44.8543421 L16.5136929,48.6997264 C16.5138262,49.8385796 17.2733427,50.8349435 18.3645228,51.1277183 C22.6965768,52.2898189 27.2978216,52.2913883 31.6352697,51.1278229 C32.7264523,50.8350744 33.4863071,49.8387042 33.4863071,48.699831 L33.4863071,44.8544467 C34.6850093,44.3039988 35.8279476,43.6375731 36.8990664,42.8645312 L40.1962656,44.7852877 C41.1724066,45.3539396 42.4063278,45.1909296 43.2030083,44.3865513 C46.3374481,41.2215614 48.6650415,37.2440322 49.848029,32.7941087 C50.1404564,31.6942616 49.66639,30.5327887 48.6885892,29.9635091 L45.3853734,28.0402414 C45.5119295,26.7167002 45.5119295,25.3879276 45.3853734,24.0643863 Z M39.9207469,30.6579235 L44.4662863,33.3038551 C43.6486356,35.5311477 42.4612604,37.6019077 40.9549793,39.4275091 L36.4084025,36.7794849 C33.0905602,39.6459718 32.6056017,39.9263742 28.5071577,41.3861408 L28.5071577,46.6802012 C26.1858425,47.0798801 23.8141575,47.0798801 21.4928423,46.6802012 L21.4928423,41.3861408 C17.394917,39.9265835 16.908195,39.6449256 13.5915975,36.7794849 L9.04502075,39.4275091 C7.53875947,37.6018937 6.3513864,35.5311373 5.53371369,33.3038551 L10.0792531,30.6579235 C9.28775934,26.3369014 9.2873444,25.7698189 10.0792531,21.4467042 L5.53371369,18.8007726 C6.34802905,16.5796298 7.53682573,14.5059074 9.04502075,12.6770141 L13.5915975,15.3250382 C16.9094398,12.4585513 17.3945021,12.1780443 21.4928423,10.7183823 L21.4928423,5.42442656 C23.8141575,5.02474768 26.1858425,5.02474768 28.5071577,5.42442656 L28.5071577,10.7184869 C32.605083,12.1780443 33.091805,12.4597022 36.4084025,15.3251429 L40.9549793,12.6771187 C42.4612623,14.5027575 43.648637,16.5735522 44.4662863,18.8008773 L39.9207469,21.4468089 C40.7123444,25.7679356 40.7126556,26.3348089 39.9207469,30.6579235 Z M25,16.0080483 C19.5088174,16.0080483 15.0414938,20.5138431 15.0414938,26.0523139 C15.0414938,31.5907847 19.5088174,36.0965795 25,36.0965795 C30.4911826,36.0965795 34.9585062,31.5907847 34.9585062,26.0523139 C34.9585062,20.5138431 30.4911826,16.0080483 25,16.0080483 Z M25,31.0744467 C22.2543568,31.0744467 20.0207469,28.8216016 20.0207469,26.0523139 C20.0207469,23.2831308 22.2543568,21.0301811 25,21.0301811 C27.7456432,21.0301811 29.9792531,23.2831308 29.9792531,26.0523139 C29.9792531,28.8216016 27.7456432,31.0744467 25,31.0744467 Z" id="Shape"></path>
        </g>
    </g>
</svg>